<svg width="18" height="18" viewBox="0 0 18 18" fill="none" xmlns="http://www.w3.org/2000/svg">
<path d="M12.2335 1H5.76649C3.13823 1 1 3.13823 1 5.76649V12.2335C1 14.8618 3.13823 17 5.76649 17H12.2335C14.8618 17 17 14.8618 17 12.2335V5.76649C17 3.13823 14.8617 1 12.2335 1ZM15.3904 12.2335C15.3904 13.977 13.977 15.3904 12.2335 15.3904H5.76649C4.023 15.3904 2.6096 13.977 2.6096 12.2335V5.76649C2.6096 4.02297 4.023 2.6096 5.76649 2.6096H12.2335C13.977 2.6096 15.3904 4.02297 15.3904 5.76649V12.2335Z" fill="#005C9E" stroke="#005C9E" stroke-width="0.2"/>
<path d="M9 5C6.7944 5 5 6.7944 5 8.99999C5 11.2056 6.7944 13 9 13C11.2056 13 13 11.2056 13 8.99999C13 6.79437 11.2056 5 9 5ZM9 11.4442C7.65013 11.4442 6.55586 10.3499 6.55586 9.00001C6.55586 7.65014 7.65015 6.55586 9 6.55586C10.3499 6.55586 11.4441 7.65014 11.4441 9.00001C11.4441 10.3499 10.3498 11.4442 9 11.4442Z" fill="#005C9E" stroke="#005C9E" stroke-width="0.2"/>
<path d="M13 6C13.5523 6 14 5.55228 14 5C14 4.44772 13.5523 4 13 4C12.4477 4 12 4.44772 12 5C12 5.55228 12.4477 6 13 6Z" fill="#005C9E"/>
</svg>
