<svg width="148" height="41" viewBox="0 0 148 41" fill="none" xmlns="http://www.w3.org/2000/svg">
<path d="M50.916 16.17C49.352 16.17 48.1393 15.7677 47.278 14.963C46.428 14.1583 45.9747 13.025 45.918 11.563C45.9067 11.257 45.901 10.7583 45.901 10.067C45.901 9.36433 45.9067 8.85433 45.918 8.537C45.9747 7.08633 46.4337 5.95867 47.295 5.154C48.1677 4.338 49.3747 3.93 50.916 3.93C51.9247 3.93 52.803 4.10567 53.551 4.457C54.299 4.797 54.877 5.26733 55.285 5.868C55.693 6.45733 55.9083 7.126 55.931 7.874V7.908C55.931 7.99867 55.8913 8.078 55.812 8.146C55.744 8.20267 55.6647 8.231 55.574 8.231H53.959C53.823 8.231 53.721 8.20267 53.653 8.146C53.585 8.08933 53.5283 7.98167 53.483 7.823C53.3017 7.109 53.0013 6.61033 52.582 6.327C52.1627 6.03233 51.6017 5.885 50.899 5.885C49.267 5.885 48.417 6.79733 48.349 8.622C48.3377 8.928 48.332 9.39833 48.332 10.033C48.332 10.6677 48.3377 11.1493 48.349 11.478C48.417 13.3027 49.267 14.215 50.899 14.215C51.6017 14.215 52.1627 14.0677 52.582 13.773C53.0127 13.4783 53.313 12.9797 53.483 12.277C53.517 12.1183 53.568 12.0107 53.636 11.954C53.7153 11.8973 53.823 11.869 53.959 11.869H55.574C55.676 11.869 55.761 11.903 55.829 11.971C55.9083 12.039 55.9423 12.124 55.931 12.226C55.9083 12.974 55.693 13.6483 55.285 14.249C54.877 14.8383 54.299 15.3087 53.551 15.66C52.803 16 51.9247 16.17 50.916 16.17ZM61.5511 16.17C60.2931 16.17 59.2901 15.8073 58.5421 15.082C57.8054 14.3453 57.4144 13.314 57.3691 11.988L57.3521 11.563L57.3691 11.138C57.4258 9.846 57.8224 8.83167 58.5591 8.095C59.3071 7.35833 60.3044 6.99 61.5511 6.99C62.8884 6.99 63.9198 7.398 64.6451 8.214C65.3818 9.03 65.7501 10.118 65.7501 11.478V11.835C65.7501 11.9483 65.7104 12.0447 65.6311 12.124C65.5518 12.2033 65.4498 12.243 65.3251 12.243H59.6811V12.379C59.7038 13.0023 59.8738 13.5293 60.1911 13.96C60.5198 14.3793 60.9674 14.589 61.5341 14.589C62.2028 14.589 62.7411 14.3283 63.1491 13.807C63.2511 13.6823 63.3304 13.603 63.3871 13.569C63.4551 13.535 63.5514 13.518 63.6761 13.518H65.1381C65.2401 13.518 65.3251 13.552 65.3931 13.62C65.4724 13.6767 65.5121 13.7503 65.5121 13.841C65.5121 14.113 65.3478 14.436 65.0191 14.81C64.7018 15.1727 64.2428 15.49 63.6421 15.762C63.0414 16.034 62.3444 16.17 61.5511 16.17ZM63.4381 10.815V10.764C63.4381 10.0953 63.2681 9.557 62.9281 9.149C62.5994 8.741 62.1404 8.537 61.5511 8.537C60.9618 8.537 60.5028 8.741 60.1741 9.149C59.8454 9.557 59.6811 10.0953 59.6811 10.764V10.815H63.4381ZM76.8536 7.16C76.9443 7.16 77.0236 7.194 77.0916 7.262C77.171 7.33 77.2106 7.40367 77.2106 7.483V15.643C77.2106 15.745 77.1766 15.83 77.1086 15.898C77.0406 15.966 76.95 16 76.8366 16H75.3746C75.2613 16 75.1706 15.966 75.1026 15.898C75.046 15.83 75.0176 15.745 75.0176 15.643V10.883L73.1986 14.232C73.1193 14.368 73.04 14.47 72.9606 14.538C72.8926 14.606 72.7906 14.64 72.6546 14.64H72.0936C71.969 14.64 71.867 14.606 71.7876 14.538C71.7083 14.47 71.6346 14.368 71.5666 14.232L69.7476 10.951V15.643C69.7476 15.745 69.7136 15.83 69.6456 15.898C69.5776 15.966 69.4926 16 69.3906 16H67.9286C67.8153 16 67.7246 15.966 67.6566 15.898C67.5886 15.83 67.5546 15.745 67.5546 15.643V7.483C67.5546 7.40367 67.5886 7.33 67.6566 7.262C67.7246 7.194 67.804 7.16 67.8946 7.16H69.3226C69.5153 7.16 69.6626 7.25633 69.7646 7.449L72.3826 12.209L75.0006 7.449C75.1026 7.25633 75.25 7.16 75.4426 7.16H76.8536ZM83.3157 16.17C82.0577 16.17 81.0547 15.8073 80.3067 15.082C79.5701 14.3453 79.1791 13.314 79.1337 11.988L79.1167 11.563L79.1337 11.138C79.1904 9.846 79.5871 8.83167 80.3237 8.095C81.0717 7.35833 82.0691 6.99 83.3157 6.99C84.6531 6.99 85.6844 7.398 86.4097 8.214C87.1464 9.03 87.5147 10.118 87.5147 11.478V11.835C87.5147 11.9483 87.4751 12.0447 87.3957 12.124C87.3164 12.2033 87.2144 12.243 87.0897 12.243H81.4457V12.379C81.4684 13.0023 81.6384 13.5293 81.9557 13.96C82.2844 14.3793 82.7321 14.589 83.2987 14.589C83.9674 14.589 84.5057 14.3283 84.9137 13.807C85.0157 13.6823 85.0951 13.603 85.1517 13.569C85.2197 13.535 85.3161 13.518 85.4407 13.518H86.9027C87.0047 13.518 87.0897 13.552 87.1577 13.62C87.2371 13.6767 87.2767 13.7503 87.2767 13.841C87.2767 14.113 87.1124 14.436 86.7837 14.81C86.4664 15.1727 86.0074 15.49 85.4067 15.762C84.8061 16.034 84.1091 16.17 83.3157 16.17ZM85.2027 10.815V10.764C85.2027 10.0953 85.0327 9.557 84.6927 9.149C84.3641 8.741 83.9051 8.537 83.3157 8.537C82.7264 8.537 82.2674 8.741 81.9387 9.149C81.6101 9.557 81.4457 10.0953 81.4457 10.764V10.815H85.2027ZM97.3773 7.16C97.4793 7.16 97.5699 7.19967 97.6493 7.279C97.7286 7.347 97.7683 7.432 97.7683 7.534V15.592C97.7683 15.7053 97.7286 15.8017 97.6493 15.881C97.5699 15.9603 97.4736 16 97.3603 16H95.9493C95.8359 16 95.7396 15.9603 95.6603 15.881C95.5809 15.8017 95.5413 15.7053 95.5413 15.592V10.135L91.4613 15.728C91.3593 15.9093 91.2063 16 91.0023 16H89.7103C89.6083 16 89.5176 15.966 89.4383 15.898C89.3589 15.8187 89.3193 15.7223 89.3193 15.609V7.568C89.3193 7.45467 89.3589 7.35833 89.4383 7.279C89.5176 7.19967 89.6139 7.16 89.7273 7.16H91.1383C91.2629 7.16 91.3593 7.19967 91.4273 7.279C91.5066 7.347 91.5463 7.44333 91.5463 7.568V13.042L95.6263 7.432C95.7509 7.25067 95.9039 7.16 96.0853 7.16H97.3773ZM93.6373 6.004C92.6739 6.004 91.9713 5.79433 91.5293 5.375C91.0873 4.94433 90.8663 4.39467 90.8663 3.726C90.8663 3.63533 90.8946 3.56167 90.9513 3.505C91.0079 3.437 91.0873 3.403 91.1893 3.403H92.1583C92.2603 3.403 92.3396 3.437 92.3963 3.505C92.4529 3.56167 92.4813 3.63533 92.4813 3.726C92.4813 4.372 92.8666 4.695 93.6373 4.695C94.4079 4.695 94.7933 4.372 94.7933 3.726C94.7933 3.63533 94.8216 3.56167 94.8783 3.505C94.9349 3.437 95.0143 3.403 95.1163 3.403H96.1023C96.2043 3.403 96.2836 3.437 96.3403 3.505C96.3969 3.56167 96.4253 3.63533 96.4253 3.726C96.4253 4.39467 96.1986 4.94433 95.7453 5.375C95.3033 5.79433 94.6006 6.004 93.6373 6.004ZM100.319 16C100.206 16 100.109 15.9603 100.03 15.881C99.9507 15.8017 99.9111 15.7053 99.9111 15.592V7.568C99.9111 7.45467 99.9507 7.35833 100.03 7.279C100.109 7.19967 100.206 7.16 100.319 7.16H101.73C101.855 7.16 101.951 7.19967 102.019 7.279C102.098 7.347 102.138 7.44333 102.138 7.568V10.611H105.98V7.568C105.98 7.44333 106.02 7.347 106.099 7.279C106.178 7.19967 106.275 7.16 106.388 7.16H107.799C107.924 7.16 108.02 7.19967 108.088 7.279C108.167 7.347 108.207 7.44333 108.207 7.568V15.592C108.207 15.7053 108.167 15.8017 108.088 15.881C108.02 15.9603 107.924 16 107.799 16H106.388C106.275 16 106.178 15.9603 106.099 15.881C106.02 15.8017 105.98 15.7053 105.98 15.592V12.396H102.138V15.592C102.138 15.7053 102.098 15.8017 102.019 15.881C101.951 15.9603 101.855 16 101.73 16H100.319ZM110.911 16C110.798 16 110.701 15.9603 110.622 15.881C110.543 15.8017 110.503 15.7053 110.503 15.592V7.568C110.503 7.45467 110.543 7.35833 110.622 7.279C110.701 7.19967 110.798 7.16 110.911 7.16H112.339C112.452 7.16 112.549 7.19967 112.628 7.279C112.707 7.35833 112.747 7.45467 112.747 7.568V9.965H114.396C115.529 9.965 116.391 10.237 116.98 10.781C117.569 11.3137 117.864 12.0617 117.864 13.025C117.864 14.011 117.558 14.7533 116.946 15.252C116.334 15.7507 115.439 16 114.26 16H110.911ZM119.394 16C119.281 16 119.184 15.9603 119.105 15.881C119.026 15.8017 118.986 15.7053 118.986 15.592V7.568C118.986 7.45467 119.026 7.35833 119.105 7.279C119.184 7.19967 119.281 7.16 119.394 7.16H120.805C120.93 7.16 121.026 7.19967 121.094 7.279C121.173 7.347 121.213 7.44333 121.213 7.568V15.592C121.213 15.7053 121.173 15.8017 121.094 15.881C121.026 15.9603 120.93 16 120.805 16H119.394ZM114.209 14.385C114.776 14.385 115.189 14.283 115.45 14.079C115.711 13.8637 115.841 13.5123 115.841 13.025C115.841 12.5377 115.711 12.175 115.45 11.937C115.189 11.699 114.776 11.58 114.209 11.58H112.713V14.385H114.209ZM131.56 7.16C131.662 7.16 131.753 7.19967 131.832 7.279C131.911 7.347 131.951 7.432 131.951 7.534V15.592C131.951 15.7053 131.911 15.8017 131.832 15.881C131.753 15.9603 131.656 16 131.543 16H130.132C130.019 16 129.922 15.9603 129.843 15.881C129.764 15.8017 129.724 15.7053 129.724 15.592V10.135L125.644 15.728C125.542 15.9093 125.389 16 125.185 16H123.893C123.791 16 123.7 15.966 123.621 15.898C123.542 15.8187 123.502 15.7223 123.502 15.609V7.568C123.502 7.45467 123.542 7.35833 123.621 7.279C123.7 7.19967 123.797 7.16 123.91 7.16H125.321C125.446 7.16 125.542 7.19967 125.61 7.279C125.689 7.347 125.729 7.44333 125.729 7.568V13.042L129.809 7.432C129.934 7.25067 130.087 7.16 130.268 7.16H131.56ZM127.82 6.004C126.857 6.004 126.154 5.79433 125.712 5.375C125.27 4.94433 125.049 4.39467 125.049 3.726C125.049 3.63533 125.077 3.56167 125.134 3.505C125.191 3.437 125.27 3.403 125.372 3.403H126.341C126.443 3.403 126.522 3.437 126.579 3.505C126.636 3.56167 126.664 3.63533 126.664 3.726C126.664 4.372 127.049 4.695 127.82 4.695C128.591 4.695 128.976 4.372 128.976 3.726C128.976 3.63533 129.004 3.56167 129.061 3.505C129.118 3.437 129.197 3.403 129.299 3.403H130.285C130.387 3.403 130.466 3.437 130.523 3.505C130.58 3.56167 130.608 3.63533 130.608 3.726C130.608 4.39467 130.381 4.94433 129.928 5.375C129.486 5.79433 128.783 6.004 127.82 6.004ZM54.265 35.473C54.3217 35.5297 54.35 35.6033 54.35 35.694C54.35 35.7847 54.316 35.8583 54.248 35.915C54.18 35.9717 54.095 36 53.993 36H52.276C52.0947 36 51.936 35.915 51.8 35.745L49.59 32.413H48.332V35.592C48.332 35.7053 48.2923 35.8017 48.213 35.881C48.1337 35.9603 48.0373 36 47.924 36H46.53C46.4167 36 46.3203 35.9603 46.241 35.881C46.1617 35.8017 46.122 35.7053 46.122 35.592V27.568C46.122 27.4547 46.1617 27.3583 46.241 27.279C46.3203 27.1997 46.4167 27.16 46.53 27.16H47.924C48.0373 27.16 48.1337 27.1997 48.213 27.279C48.2923 27.3583 48.332 27.4547 48.332 27.568V30.611H49.59L51.63 27.432C51.698 27.3413 51.766 27.2733 51.834 27.228C51.902 27.1827 51.9927 27.16 52.106 27.16H53.619C53.7323 27.16 53.823 27.1883 53.891 27.245C53.959 27.3017 53.993 27.3753 53.993 27.466C53.993 27.534 53.9647 27.6077 53.908 27.687L51.477 31.427L54.265 35.473ZM56.2589 39.23C56.1456 39.23 56.0492 39.1903 55.9699 39.111C55.8906 39.043 55.8509 38.9467 55.8509 38.822V27.568C55.8509 27.4433 55.8906 27.347 55.9699 27.279C56.0492 27.1997 56.1456 27.16 56.2589 27.16H57.6019C57.7266 27.16 57.8229 27.1997 57.8909 27.279C57.9702 27.347 58.0099 27.4433 58.0099 27.568V28.248C58.6446 27.4093 59.5512 26.99 60.7299 26.99C61.8746 26.99 62.7529 27.3527 63.3649 28.078C63.9769 28.792 64.3056 29.761 64.3509 30.985C64.3622 31.121 64.3679 31.3193 64.3679 31.58C64.3679 31.852 64.3622 32.056 64.3509 32.192C64.3056 33.382 63.9769 34.3453 63.3649 35.082C62.7529 35.8073 61.8746 36.17 60.7299 36.17C59.5852 36.17 58.7126 35.7677 58.1119 34.963V38.822C58.1119 38.9467 58.0722 39.043 57.9929 39.111C57.9249 39.1903 57.8286 39.23 57.7039 39.23H56.2589ZM60.1009 34.351C61.3249 34.351 61.9766 33.5973 62.0559 32.09C62.0672 31.9767 62.0729 31.8067 62.0729 31.58C62.0729 31.3533 62.0672 31.1833 62.0559 31.07C61.9766 29.5627 61.3249 28.809 60.1009 28.809C59.4436 28.809 58.9562 29.0187 58.6389 29.438C58.3216 29.8573 58.1459 30.373 58.1119 30.985L58.0949 31.631L58.1119 32.294C58.1346 32.8607 58.3102 33.348 58.6389 33.756C58.9789 34.1527 59.4662 34.351 60.1009 34.351ZM73.7481 27.16C73.8387 27.16 73.9181 27.194 73.9861 27.262C74.0654 27.33 74.1051 27.4093 74.1051 27.5C74.1051 27.5793 74.0824 27.67 74.0371 27.772L70.8071 35.49C70.4557 36.3287 70.1384 36.9973 69.8551 37.496C69.5717 37.9947 69.2204 38.4083 68.8011 38.737C68.3817 39.0657 67.8774 39.23 67.2881 39.23H66.5401C66.4267 39.23 66.3304 39.1903 66.2511 39.111C66.1717 39.043 66.1321 38.9467 66.1321 38.822V37.853C66.1321 37.7397 66.1717 37.6433 66.2511 37.564C66.3304 37.4847 66.4267 37.445 66.5401 37.445H67.0671C67.4071 37.445 67.6621 37.3487 67.8321 37.156C68.0021 36.9633 68.2061 36.578 68.4441 36L68.6311 35.541L65.2821 27.772C65.2367 27.67 65.2141 27.5907 65.2141 27.534C65.2254 27.432 65.2651 27.347 65.3331 27.279C65.4011 27.1997 65.4861 27.16 65.5881 27.16H66.9481C67.1521 27.16 67.2994 27.2677 67.3901 27.483L69.6511 33.076L71.9801 27.483C72.0594 27.2677 72.2181 27.16 72.4561 27.16H73.7481ZM76.0144 36C75.901 36 75.8047 35.9603 75.7254 35.881C75.646 35.8017 75.6064 35.7053 75.6064 35.592V27.568C75.6064 27.4547 75.646 27.3583 75.7254 27.279C75.8047 27.1997 75.901 27.16 76.0144 27.16H81.4034C81.528 27.16 81.6244 27.1997 81.6924 27.279C81.7717 27.347 81.8114 27.4433 81.8114 27.568V28.537C81.8114 28.6617 81.7717 28.7637 81.6924 28.843C81.613 28.9223 81.5167 28.962 81.4034 28.962H77.8334V35.592C77.8334 35.7053 77.7937 35.8017 77.7144 35.881C77.6464 35.9603 77.55 36 77.4254 36H76.0144Z" fill="#005C9E"/>
<path d="M27.6969 18.0261V18.8133C27.6969 19.3964 27.3762 19.9212 26.8514 20.1836L16.9097 25.0524C15.9184 25.5189 15.1313 26.306 14.6065 27.2098C14.0817 26.306 13.2654 25.5189 12.3033 25.0524L2.33237 20.1836C1.80759 19.9212 1.48689 19.3964 1.48689 18.8133V18.0261H0V22.6617C0 24.2361 0.903794 25.6938 2.33237 26.3935L4.05249 27.239V30.446C4.05249 36.2769 8.77554 41 14.6065 41C20.4374 41 25.1604 36.2769 25.1604 30.446V27.239L26.8806 26.3935C28.3091 25.6938 29.2129 24.2361 29.2129 22.6617V18.0261H27.6969ZM14.6065 36.0437C9.88342 36.0437 5.9767 32.4868 5.45192 27.9095L13.0321 31.6122C13.5569 31.8746 13.8776 32.3994 13.8776 32.9825V33.7988H15.3645V32.9825C15.3645 32.3994 15.6852 31.8746 16.21 31.6122L23.7902 27.9095C23.2071 32.516 19.3004 36.0437 14.6065 36.0437Z" fill="#005C9E"/>
<path d="M7.37618 14.7027C6.88055 16.4228 7.05548 18.0846 7.05548 18.2012L7.1721 19.0759L8.04674 19.1925C8.16336 19.1925 9.79601 19.3966 11.5453 18.8718C12.3908 20.5628 13.8194 21.6998 13.8777 21.7581L14.5774 22.312L15.2771 21.7581C15.3062 21.7289 15.5686 21.5249 15.9185 21.175C16.4141 20.6794 17.1138 19.863 17.6095 18.8718C19.3296 19.3674 20.9914 19.1925 21.108 19.1925L21.9827 19.0759L22.0993 18.2012C22.0993 18.0846 22.3034 16.452 21.7786 14.7027C22.7698 14.207 23.557 13.5073 24.0818 13.0117C24.4316 12.6619 24.6357 12.3995 24.6649 12.3703L25.2188 11.6706L24.6649 10.9709C24.6066 10.8834 23.4695 9.484 21.7786 8.63851C22.2742 6.91839 22.0993 5.25658 22.0993 5.13996L21.9827 4.26532L21.108 4.1487C20.9914 4.1487 19.3587 3.94462 17.6095 4.4694C16.764 2.77843 15.3354 1.6414 15.2771 1.58309L14.6065 1L13.9068 1.55394C13.8194 1.61225 12.4199 2.74928 11.5744 4.44025C9.85432 3.94462 8.19251 4.11955 8.07589 4.11955L7.20125 4.23616L7.08463 5.1108C7.08463 5.22742 6.88055 6.86008 7.40533 8.60936C5.71437 9.45484 4.57734 10.8834 4.51903 10.9417L3.96509 11.6414L4.51903 12.3412C4.57734 12.4286 5.68521 13.828 7.37618 14.7027ZM10.9039 16.6852C10.35 16.8601 9.76686 16.9184 9.30039 16.9476C9.32954 16.4811 9.38785 15.898 9.56278 15.3441C9.6794 15.3441 9.79601 15.3441 9.94179 15.3441C10.3208 15.3441 10.6998 15.2858 11.0497 15.2275C10.9622 15.5773 10.933 15.9563 10.933 16.3353C10.9039 16.452 10.9039 16.5686 10.9039 16.6852ZM18.28 16.6852C18.28 16.5686 18.3092 16.452 18.3092 16.3062C18.3092 15.9272 18.2509 15.5482 18.1926 15.1983C18.5424 15.2858 18.9214 15.3149 19.3004 15.3149C19.417 15.3149 19.5337 15.3149 19.6503 15.3149C19.8252 15.8689 19.8835 16.452 19.9127 16.9184C19.417 16.9184 18.8631 16.8601 18.28 16.6852ZM18.28 6.59769C18.834 6.42276 19.417 6.36445 19.8835 6.3353C19.8544 6.80177 19.7961 7.38486 19.6211 7.9388C19.5045 7.9388 19.3879 7.9388 19.2421 7.9388C18.8631 7.9388 18.4841 7.99711 18.1342 8.05542C18.2217 7.70557 18.2509 7.32656 18.2509 6.94755C18.3092 6.86008 18.28 6.71431 18.28 6.59769ZM19.2713 10.2129C20.3791 10.2129 21.5162 10.9709 22.245 11.6414C21.5745 12.2537 20.4666 13.07 19.2713 13.07C18.1634 13.07 17.0264 12.312 16.2975 11.6414C16.9972 11.0292 18.1051 10.2129 19.2713 10.2129ZM14.6065 4.00293C15.2188 4.67348 16.0351 5.78136 16.0351 6.9767C16.0351 8.08458 15.2771 9.22161 14.6065 9.95047C13.9943 9.27992 13.178 8.17204 13.178 6.9767C13.1488 5.83967 13.936 4.73179 14.6065 4.00293ZM14.6065 13.3616C15.2188 14.0321 16.0351 15.14 16.0351 16.3353C16.0351 17.4432 15.2771 18.5802 14.6065 19.3091C13.9943 18.6386 13.178 17.5307 13.178 16.3353C13.1488 15.1983 13.936 14.0904 14.6065 13.3616ZM10.9039 6.59769C10.9039 6.71431 10.8747 6.83093 10.8747 6.9767C10.8747 7.35571 10.933 7.73472 10.9914 8.08458C10.6415 7.99711 10.2625 7.96796 9.88348 7.96796C9.76686 7.96796 9.65024 7.96796 9.53362 7.96796C9.38785 7.41402 9.32954 6.83093 9.30039 6.36445C9.76686 6.36445 10.35 6.42276 10.9039 6.59769ZM9.91263 10.2129C11.0205 10.2129 12.1575 10.9709 12.8864 11.6414C12.2158 12.2537 11.108 13.07 9.91263 13.07C8.80476 13.07 7.66773 12.312 6.93886 11.6414C7.63857 11.0292 8.74645 10.2129 9.91263 10.2129Z" fill="#005C9E"/>
</svg>
