<svg width="16" height="9" viewBox="0 0 16 9" fill="none" xmlns="http://www.w3.org/2000/svg">
<path fill-rule="evenodd" clip-rule="evenodd" d="M15.6329 0.60942C15.7441 0.25813 15.6329 0 15.1035 0H13.3531C12.908 0 12.7029 0.222987 12.5916 0.468876C12.5916 0.468876 11.7014 2.5239 10.4404 3.85877C10.0325 4.24518 9.847 4.36812 9.62446 4.36812C9.51321 4.36812 9.35215 4.24518 9.35215 3.89392V0.60942C9.35215 0.187872 9.22298 0 8.85206 0H6.10142C5.82329 0 5.65602 0.19565 5.65602 0.381075C5.65602 0.780695 6.28649 0.872852 6.35148 1.99698V4.43841C6.35148 4.97368 6.24942 5.07073 6.02688 5.07073C5.43349 5.07073 3.99005 3.00653 3.13395 0.644535C2.96618 0.185446 2.79791 0 2.35055 0H0.600145C0.100029 0 0 0.222987 0 0.468876C0 0.907996 0.593427 3.08596 2.76309 5.96648C4.20953 7.93365 6.24746 9 8.10189 9C9.21453 9 9.35218 8.76316 9.35218 8.3552V6.86842C9.35218 6.39474 9.45758 6.3002 9.80992 6.3002C10.0695 6.3002 10.5146 6.42315 11.5531 7.37162C12.7399 8.49571 12.9356 9 13.6032 9H15.3536C15.8537 9 16.1037 8.76316 15.9595 8.29576C15.8016 7.82993 15.235 7.15407 14.4831 6.35289C14.0751 5.89623 13.4632 5.40445 13.2777 5.1585C13.0181 4.84239 13.0923 4.70184 13.2777 4.42084C13.2777 4.42084 15.4103 1.57543 15.6329 0.60942Z" fill="#005C9E"/>
</svg>
